<?xml version="1.0" encoding="UTF-8"?>
<!DOCTYPE svg PUBLIC "-//W3C//DTD SVG 1.1//EN" "http://www.w3.org/Graphics/SVG/1.1/DTD/svg11.dtd">
<svg xmlns="http://www.w3.org/2000/svg" version="1.1" width="642px" height="642px" style="shape-rendering:geometricPrecision; text-rendering:geometricPrecision; image-rendering:optimizeQuality; fill-rule:evenodd; clip-rule:evenodd" xmlns:xlink="http://www.w3.org/1999/xlink">
<g><path style="opacity:0.982" fill="#92caee" d="M 306.5,-0.5 C 316.167,-0.5 325.833,-0.5 335.5,-0.5C 438.144,7.07747 520.31,51.7441 582,133.5C 616.469,182.448 636.303,236.782 641.5,296.5C 641.5,312.5 641.5,328.5 641.5,344.5C 629.871,455.884 576.538,540.717 481.5,599C 438.829,623.17 393.162,637.337 344.5,641.5C 328.5,641.5 312.5,641.5 296.5,641.5C 181.655,629.031 95.4888,573.031 38,473.5C 15.0099,429.862 2.17661,383.528 -0.5,334.5C -0.5,325.5 -0.5,316.5 -0.5,307.5C 6.40566,205.174 50.4057,123.007 131.5,61C 183.912,23.6959 242.245,3.19587 306.5,-0.5 Z"/></g>
<g><path style="opacity:1" fill="#263870" d="M 298.5,27.5 C 396.676,23.0357 478.509,57.0357 544,129.5C 608.238,208.992 628.238,298.659 604,398.5C 577.131,489.406 520.298,553.906 433.5,592C 333.99,630.142 239.99,619.809 151.5,561C 62.7118,493.896 21.5452,404.396 28,292.5C 41.028,190.885 91.528,114.385 179.5,63C 216.856,42.9175 256.523,31.0842 298.5,27.5 Z"/></g>
<g><path style="opacity:1" fill="#fdfdfd" d="M 524.5,509.5 C 521.772,505.263 518.439,501.429 514.5,498C 488.905,475.528 459.905,458.695 427.5,447.5C 412.978,459.478 396.978,469.311 379.5,477C 385.127,489.384 390.461,501.884 395.5,514.5C 379.5,515.167 363.5,515.833 347.5,516.5C 341.544,536.576 330.877,553.743 315.5,568C 294.791,583.724 271.791,588.058 246.5,581C 232.306,576.425 227.14,566.925 231,552.5C 235.984,542.925 243.817,539.092 254.5,541C 278.336,547.749 294.669,539.582 303.5,516.5C 287.5,515.833 271.5,515.167 255.5,514.5C 259.965,503.11 264.632,491.777 269.5,480.5C 250.02,472.82 232.187,462.486 216,449.5C 186.474,461.336 159.974,477.836 136.5,499C 131.234,503.759 126.567,508.925 122.5,514.5C 77.0959,468.235 50.9292,412.569 44,347.5C 37.6639,242.702 75.8305,158.536 158.5,95C 246.121,35.8205 338.788,26.8205 436.5,68C 531.196,115.067 585.03,191.234 598,296.5C 603.189,378.11 578.689,449.11 524.5,509.5 Z"/></g>
<g><path style="opacity:1" fill="#293b72" d="M 296.5,72.5 C 318.88,73.5622 326.713,84.8955 320,106.5C 313.721,115.209 305.221,118.376 294.5,116C 284.771,111.561 280.104,103.894 280.5,93C 280.955,82.2171 286.288,75.3837 296.5,72.5 Z"/></g>
<g><path style="opacity:1" fill="#293b72" d="M 371.5,78.5 C 378.891,77.7982 385.391,79.7982 391,84.5C 392.312,88.223 391.145,90.5563 387.5,91.5C 384.167,90.5 380.833,89.5 377.5,88.5C 374.307,88.1884 373.14,89.5218 374,92.5C 379.289,95.4655 383.956,99.1322 388,103.5C 389.647,118.186 383.147,124.352 368.5,122C 363.064,120.472 359.064,117.305 356.5,112.5C 357.167,109.833 358.833,108.167 361.5,107.5C 364.774,108.47 367.774,109.97 370.5,112C 376.094,113.913 378.261,112.08 377,106.5C 371.906,104.124 367.573,100.791 364,96.5C 361.856,88.465 364.356,82.465 371.5,78.5 Z"/></g>
<g><path style="opacity:1" fill="#293a71" d="M 252.5,81.5 C 267.536,81.2044 275.536,88.5378 276.5,103.5C 277.205,110.887 274.539,116.72 268.5,121C 261.742,123.924 254.742,125.591 247.5,126C 243.454,114.323 239.787,102.49 236.5,90.5C 236.637,88.8927 237.304,87.5594 238.5,86.5C 243.281,84.8162 247.948,83.1495 252.5,81.5 Z"/></g>
<g><path style="opacity:1" fill="#fafafb" d="M 298.5,81.5 C 304.502,81.2535 308.669,83.9201 311,89.5C 311.81,94.2574 311.476,98.9241 310,103.5C 306.604,107.203 302.437,108.369 297.5,107C 291.83,101.72 289.996,95.2203 292,87.5C 293.494,84.6865 295.66,82.6865 298.5,81.5 Z"/></g>
<g><path style="opacity:1" fill="#f9fafb" d="M 250.5,91.5 C 263.984,91.1134 268.817,97.4467 265,110.5C 262.081,114.198 258.247,115.864 253.5,115.5C 251.905,107.716 249.905,100.05 247.5,92.5C 248.791,92.7373 249.791,92.404 250.5,91.5 Z"/></g>
<g><path style="opacity:1" fill="#283a71" d="M 407.5,91.5 C 431.461,91.7643 439.294,103.098 431,125.5C 423.625,135.698 414.125,138.198 402.5,133C 392.242,125.271 389.742,115.438 395,103.5C 397.744,97.9206 401.911,93.9206 407.5,91.5 Z"/></g>
<g><path style="opacity:1" fill="#293b72" d="M 208.5,141.5 C 203.95,131.4 199.117,121.4 194,111.5C 193.5,106.667 195.667,104.5 200.5,105C 209.436,108.977 218.27,113.144 227,117.5C 224.363,110.708 221.53,103.875 218.5,97C 220.685,91.6324 223.852,91.1324 228,95.5C 232.667,104.833 237.333,114.167 242,123.5C 243.822,130.338 241.322,132.838 234.5,131C 226.347,127.423 218.347,123.59 210.5,119.5C 210.167,119.833 209.833,120.167 209.5,120.5C 213.171,126.342 216.171,132.509 218.5,139C 216.495,145.168 213.161,146.001 208.5,141.5 Z"/></g>
<g><path style="opacity:1" fill="#f8f8fa" d="M 411.5,100.5 C 419.144,99.7975 423.478,103.131 424.5,110.5C 424.33,118.885 420.33,124.219 412.5,126.5C 405.589,125.871 402.255,122.038 402.5,115C 403.705,108.98 406.705,104.147 411.5,100.5 Z"/></g>
<g><path style="opacity:1" fill="#283a71" d="M 448.5,109.5 C 451.652,108.959 454.152,109.959 456,112.5C 456.549,122.841 457.216,133.174 458,143.5C 462.289,137.755 466.456,131.921 470.5,126C 474.641,124.736 477.308,126.07 478.5,130C 473.452,138.73 467.952,147.23 462,155.5C 460.277,158.725 457.777,161.058 454.5,162.5C 452.399,162.368 450.899,161.368 450,159.5C 449.11,149.148 448.11,138.814 447,128.5C 443.29,134.087 439.457,139.587 435.5,145C 429.086,147.593 426.586,145.426 428,138.5C 434.843,128.804 441.676,119.138 448.5,109.5 Z"/></g>
<g><path style="opacity:1" fill="#283a71" d="M 208.5,141.5 C 209.99,144.212 209.656,146.712 207.5,149C 203.242,149.337 199.242,148.67 195.5,147C 192.333,149.5 189.167,152 186,154.5C 186.215,157.811 186.215,161.144 186,164.5C 184.192,166.396 182.025,166.896 179.5,166C 175.091,155.107 171.257,143.94 168,132.5C 165.835,124.679 168.668,121.179 176.5,122C 187.361,128.26 198.028,134.76 208.5,141.5 Z"/></g>
<g><path style="opacity:1" fill="#f2f3f6" d="M 177.5,132.5 C 181.707,134.435 185.373,137.102 188.5,140.5C 186.54,142.156 184.54,143.823 182.5,145.5C 179.872,141.628 178.205,137.295 177.5,132.5 Z"/></g>
<g><path style="opacity:1" fill="#2a3b72" d="M 155.5,134.5 C 159.223,134.223 161.556,135.89 162.5,139.5C 161.103,142.406 159.103,144.906 156.5,147C 163.667,154.167 170.833,161.333 178,168.5C 178.34,173.822 175.84,175.989 170.5,175C 163.652,167.985 156.652,161.152 149.5,154.5C 147.496,156.752 144.996,158.086 142,158.5C 138.261,158.095 136.927,156.095 138,152.5C 144.036,146.631 149.87,140.631 155.5,134.5 Z"/></g>
<g><path style="opacity:1" fill="#2a3b72" d="M 485.5,138.5 C 487.199,138.34 488.866,138.506 490.5,139C 495.415,143.244 499.581,148.077 503,153.5C 504.643,167.024 498.81,172.357 485.5,169.5C 484.672,174.132 484.172,178.798 484,183.5C 481.294,186.978 478.294,187.311 475,184.5C 474.618,176.77 474.951,169.103 476,161.5C 472.833,164.667 469.667,167.833 466.5,171C 460.839,171.667 458.672,169.167 460,163.5C 468.395,154.937 476.895,146.604 485.5,138.5 Z"/></g>
<g><path style="opacity:1" fill="#f6f7f9" d="M 487.5,150.5 C 493.029,152.188 494.696,155.688 492.5,161C 487.617,162.453 484.283,160.786 482.5,156C 484.351,154.317 486.017,152.484 487.5,150.5 Z"/></g>
<g><path style="opacity:1" fill="#263870" d="M 318.5,508.5 C 319.404,507.791 319.737,506.791 319.5,505.5C 303.5,505.5 287.5,505.5 271.5,505.5C 276.226,494.987 280.56,484.32 284.5,473.5C 252.048,465.858 225.214,449.192 204,423.5C 166.688,374.596 157.022,320.596 175,261.5C 197.369,201.912 239.869,166.745 302.5,156C 372.037,153.007 422.871,182.174 455,243.5C 479.795,299.926 476.462,354.593 445,407.5C 424.383,438.397 396.55,460.064 361.5,472.5C 366.167,483.167 370.833,493.833 375.5,504.5C 362.183,505.499 348.85,505.833 335.5,505.5C 331.152,530.721 318.819,550.888 298.5,566C 281.829,573.975 264.496,575.642 246.5,571C 240.905,568.646 239.072,564.479 241,558.5C 242.509,556.119 244.675,555.119 247.5,555.5C 279.161,563.586 301.328,552.586 314,522.5C 315.607,517.846 317.107,513.18 318.5,508.5 Z"/></g>
<g><path style="opacity:1" fill="#2a3b72" d="M 130.5,161.5 C 136.367,161.36 138.367,164.026 136.5,169.5C 134.183,171.316 132.016,173.316 130,175.5C 128.746,179.111 129.912,180.611 133.5,180C 136.009,178.579 138.343,176.912 140.5,175C 149.232,170.91 156.066,173.076 161,181.5C 162.187,190.96 158.687,198.127 150.5,203C 147.923,204.25 145.257,204.584 142.5,204C 139.966,201.253 139.966,198.587 142.5,196C 146.846,194.32 149.846,191.32 151.5,187C 150.553,183.928 148.553,182.928 145.5,184C 141.409,187.596 136.742,190.096 131.5,191.5C 120.938,188.69 117.438,182.023 121,171.5C 123.696,167.639 126.863,164.306 130.5,161.5 Z"/></g>
<g><path style="opacity:1" fill="#2a3c72" d="M 511.5,165.5 C 516.989,165.504 518.822,168.171 517,173.5C 508.258,180.786 499.425,187.953 490.5,195C 484.086,197.593 481.586,195.426 483,188.5C 492.295,180.454 501.795,172.788 511.5,165.5 Z"/></g>
<g><path style="opacity:1" fill="#92caee" d="M 347.5,486.5 C 331.5,487.833 315.5,487.833 299.5,486.5C 300.987,482.855 302.487,479.188 304,475.5C 309.408,470.88 314.908,466.38 320.5,462C 249.276,454.974 204.776,416.807 187,347.5C 177.241,293.79 191.407,247.624 229.5,209C 270.278,173.198 316.278,164.531 367.5,183C 374.488,186.159 381.154,189.826 387.5,194C 377.625,196.207 371.291,202.207 368.5,212C 369.992,218.418 373.992,220.751 380.5,219C 382.833,216 385.167,213 387.5,210C 388.5,209.833 389.5,209.667 390.5,209.5C 397.47,210.875 403.47,214.042 408.5,219C 411.099,219.769 413.599,219.602 416,218.5C 444.101,250.471 456.434,287.804 453,330.5C 443.187,399.971 404.354,443.137 336.5,460C 340.591,468.679 344.257,477.512 347.5,486.5 Z"/></g>
<g><path style="opacity:1" fill="#293b72" d="M 515.5,181.5 C 528.617,181.119 535.45,187.452 536,200.5C 534.136,203.207 531.636,204.041 528.5,203C 527.38,198.844 525.38,195.178 522.5,192C 520.08,191.085 518.747,191.918 518.5,194.5C 520.78,201.163 520.947,207.83 519,214.5C 510.306,221.756 502.306,221.089 495,212.5C 492.148,207.828 490.814,202.828 491,197.5C 493.332,194.209 496.165,193.709 499.5,196C 500.289,199.595 501.456,203.095 503,206.5C 506.567,210.751 509.067,210.251 510.5,205C 508.737,199.278 508.237,193.444 509,187.5C 511.063,185.266 513.229,183.266 515.5,181.5 Z"/></g>
<g><path style="opacity:1" fill="#293a71" d="M 110.5,188.5 C 112.655,188.372 114.655,188.872 116.5,190C 126.085,196.042 135.585,202.209 145,208.5C 145.993,214.502 143.493,216.668 137.5,215C 128.5,209.333 119.5,203.667 110.5,198C 106.581,194.84 106.581,191.673 110.5,188.5 Z"/></g>
<g><path style="opacity:1" fill="#2a3b72" d="M 101.5,203.5 C 109.724,205.966 117.724,209.133 125.5,213C 137.004,221.183 138.504,231.016 130,242.5C 124.344,247.193 117.844,248.693 110.5,247C 102.641,243.821 95.1406,239.987 88,235.5C 86.5844,231.492 87.9177,229.159 92,228.5C 99.0623,230.744 105.896,233.577 112.5,237C 122.06,239.108 126.227,235.275 125,225.5C 124.167,224.667 123.333,223.833 122.5,223C 114.802,219.151 107.136,215.318 99.5,211.5C 97.9712,208.282 98.6379,205.615 101.5,203.5 Z"/></g>
<g><path style="opacity:1" fill="#2a3b72" d="M 523.5,220.5 C 531.507,220.334 539.507,220.5 547.5,221C 551.292,223.053 552.458,226.219 551,230.5C 542.803,239.031 534.303,247.198 525.5,255C 530.488,257.264 531.821,260.931 529.5,266C 529.631,268.253 530.131,270.419 531,272.5C 533,273.833 535,273.833 537,272.5C 537.811,266.367 539.145,260.367 541,254.5C 550.215,247.984 557.548,249.651 563,259.5C 565.116,264.773 564.949,269.939 562.5,275C 559.49,277.222 556.99,276.722 555,273.5C 554.667,270.167 554.333,266.833 554,263.5C 552.688,261.342 551.022,261.009 549,262.5C 547.97,266.773 547.303,271.106 547,275.5C 543.575,282.962 537.741,285.795 529.5,284C 524.503,280.857 521.336,276.357 520,270.5C 519.022,266.1 519.522,261.933 521.5,258C 516.885,256.923 515.385,254.09 517,249.5C 518.522,247.978 520.022,246.478 521.5,245C 519.972,240.777 518.305,236.61 516.5,232.5C 513.553,231.679 510.553,231.179 507.5,231C 504.582,227.528 504.915,224.528 508.5,222C 513.684,221.826 518.684,221.326 523.5,220.5 Z"/></g>
<g><path style="opacity:1" fill="#f0f1f5" d="M 525.5,229.5 C 530.179,229.334 534.845,229.501 539.5,230C 536.352,233.071 533.019,235.904 529.5,238.5C 527.781,235.677 526.447,232.677 525.5,229.5 Z"/></g>
<g><path style="opacity:1" fill="#253970" d="M 286.5,230.5 C 293.042,229.989 299.376,230.822 305.5,233C 309.985,238.741 308.985,243.407 302.5,247C 299.188,247.538 296.021,247.038 293,245.5C 288.457,246.374 285.457,249.04 284,253.5C 283.202,258.858 282.368,264.192 281.5,269.5C 278.722,272.307 275.389,273.14 271.5,272C 269.667,271.5 268.5,270.333 268,268.5C 265.311,255.579 268.477,244.412 277.5,235C 280.462,233.15 283.462,231.65 286.5,230.5 Z"/></g>
<g><path style="opacity:1" fill="#253970" d="M 401.5,237.5 C 409.658,236.823 413.158,240.49 412,248.5C 403.185,275.302 384.685,290.468 356.5,294C 344.465,295.859 333.132,293.859 322.5,288C 318.667,285.5 315.5,282.333 313,278.5C 312.57,273.083 315.07,269.75 320.5,268.5C 326.678,271.811 333.011,274.978 339.5,278C 358.399,280.256 374.566,274.756 388,261.5C 392.388,255.391 395.721,248.724 398,241.5C 399.376,240.295 400.542,238.962 401.5,237.5 Z"/></g>
<g><path style="opacity:1" fill="#283a71" d="M 92.5,248.5 C 101.446,248.093 109.28,250.759 116,256.5C 122.156,250.357 125.489,251.357 126,259.5C 124.622,261.213 122.955,262.547 121,263.5C 121.567,285.636 111.067,294.136 89.5,289C 78.1094,283.047 74.276,273.88 78,261.5C 81.1625,255.164 85.9958,250.831 92.5,248.5 Z"/></g>
<g><path style="opacity:1" fill="#f6f7f9" d="M 91.5,259.5 C 95.1817,259.335 98.8484,259.501 102.5,260C 106.926,261.034 107.426,262.867 104,265.5C 103.148,271.999 105.481,273.666 111,270.5C 111.658,274.025 110.491,276.859 107.5,279C 98.1247,282.553 90.958,280.053 86,271.5C 85.4129,266.344 87.2462,262.344 91.5,259.5 Z"/></g>
<g><path style="opacity:1" fill="#283a71" d="M 74.5,295.5 C 87.1586,296.095 99.8253,296.595 112.5,297C 114.444,299.153 114.944,301.653 114,304.5C 105.833,310.667 97.6667,316.833 89.5,323C 96.8333,323.333 104.167,323.667 111.5,324C 113.65,326.555 113.983,329.388 112.5,332.5C 99.1276,333.958 85.7943,333.625 72.5,331.5C 71.3526,329.235 71.1859,326.902 72,324.5C 80.1667,318.333 88.3333,312.167 96.5,306C 89.1667,305.667 81.8333,305.333 74.5,305C 70.5993,301.792 70.5993,298.626 74.5,295.5 Z"/></g>
<g><path style="opacity:1" fill="#283a71" d="M 529.5,302.5 C 543.719,305.628 557.219,310.628 570,317.5C 571.183,321.274 570.349,324.441 567.5,327C 556.999,331.39 546.333,335.39 535.5,339C 528.909,341.244 526.409,339.077 528,332.5C 529.995,330.253 532.495,329.253 535.5,329.5C 535.828,324.125 535.495,318.792 534.5,313.5C 527.775,311.966 526.108,308.299 529.5,302.5 Z"/></g>
<g><path style="opacity:1" fill="#eeeff4" d="M 544.5,316.5 C 549.452,318.095 554.452,319.595 559.5,321C 554.675,322.958 549.675,324.458 544.5,325.5C 544.5,322.5 544.5,319.5 544.5,316.5 Z"/></g>
<g><path style="opacity:1" fill="#2b3c73" d="M 90.5,338.5 C 114.778,338.598 122.611,349.931 114,372.5C 103.616,381.535 92.4493,382.701 80.5,376C 68.6836,359.299 72.017,346.799 90.5,338.5 Z"/></g>
<g><path style="opacity:1" fill="#2a3c72" d="M 527.5,342.5 C 535.487,342.002 537.487,345.169 533.5,352C 525.424,352.805 523.424,349.638 527.5,342.5 Z"/></g>
<g><path style="opacity:1" fill="#fbfdfe" d="M 212.5,345.5 C 229.419,394.249 262.752,425.749 312.5,440C 279.362,439.508 251.862,427.008 230,402.5C 217.835,385.489 212.002,366.489 212.5,345.5 Z"/></g>
<g><path style="opacity:1" fill="#fcfcfd" d="M 90.5,349.5 C 95.2973,349.121 99.964,349.621 104.5,351C 109.833,356.333 109.833,361.667 104.5,367C 98.6177,369.808 92.6177,370.141 86.5,368C 83.6403,364.319 82.8069,360.152 84,355.5C 86.0627,353.266 88.2294,351.266 90.5,349.5 Z"/></g>
<g><path style="opacity:1" fill="#2a3b72" d="M 534.5,359.5 C 550.563,358.005 560.23,365.005 563.5,380.5C 562.969,386.264 560.969,391.43 557.5,396C 551.786,398.4 549.286,396.566 550,390.5C 556.371,380.993 554.205,374.493 543.5,371C 536.563,368.78 531.73,370.947 529,377.5C 528.667,381.167 528.333,384.833 528,388.5C 525.034,391.265 522.367,390.932 520,387.5C 517.238,374.018 522.072,364.684 534.5,359.5 Z"/></g>
<g><path style="opacity:1" fill="#2a3b72" d="M 114.5,377.5 C 118.147,377.622 120.981,379.288 123,382.5C 130.161,393.737 128.661,403.57 118.5,412C 102.078,421.302 90.2451,417.469 83,400.5C 81.7382,396.091 82.5715,392.257 85.5,389C 88.025,388.104 90.1917,388.604 92,390.5C 91.1272,403.786 96.9605,408.619 109.5,405C 113.679,402.826 116.346,399.493 117.5,395C 116.014,390.366 114.014,386.032 111.5,382C 111.557,379.791 112.557,378.291 114.5,377.5 Z"/></g>
<g><path style="opacity:1" fill="#f3c839" d="M 478.5,387.5 C 486.656,386.821 490.156,390.488 489,398.5C 482.141,412.08 475.474,425.747 469,439.5C 466.091,442.394 462.591,443.227 458.5,442C 454.788,439.487 453.622,435.987 455,431.5C 461.939,417.956 468.605,404.289 475,390.5C 476.145,389.364 477.312,388.364 478.5,387.5 Z"/></g>
<g><path style="opacity:1" fill="#f3c839" d="M 156.5,389.5 C 160.603,388.769 164.103,389.769 167,392.5C 175.387,407.94 183.22,423.607 190.5,439.5C 189.662,446.174 185.995,448.674 179.5,447C 178.069,446.535 176.903,445.701 176,444.5C 167.472,428.945 159.639,413.111 152.5,397C 152.43,393.634 153.763,391.134 156.5,389.5 Z"/></g>
<g><path style="opacity:1" fill="#2a3b72" d="M 519.5,394.5 C 526.488,393.648 528.822,396.481 526.5,403C 520.24,405.412 517.407,403.245 518,396.5C 518.717,395.956 519.217,395.289 519.5,394.5 Z"/></g>
<g><path style="opacity:1" fill="#f3c93a" d="M 511.5,427.5 C 520.33,426.162 523.83,429.829 522,438.5C 516.537,447.261 510.704,455.761 504.5,464C 495.175,466.338 491.341,462.838 493,453.5C 498.464,444.201 504.631,435.534 511.5,427.5 Z"/></g>
<g><path style="opacity:1" fill="#f3c93a" d="M 127.5,432.5 C 131.516,431.9 135.016,432.9 138,435.5C 142.667,442.833 147.333,450.167 152,457.5C 156.576,467.522 153.41,472.022 142.5,471C 136.296,462.761 130.463,454.261 125,445.5C 122.606,440.527 123.44,436.194 127.5,432.5 Z"/></g>
<g><path style="opacity:1" fill="#f2c736" d="M 524.5,509.5 C 463.302,573.194 388.302,602.694 299.5,598C 229.915,591.896 170.915,564.063 122.5,514.5C 126.567,508.925 131.234,503.759 136.5,499C 159.974,477.836 186.474,461.336 216,449.5C 232.187,462.486 250.02,472.82 269.5,480.5C 264.632,491.777 259.965,503.11 255.5,514.5C 254.957,514.56 254.624,514.893 254.5,515.5C 270.82,516.499 287.153,516.833 303.5,516.5C 294.669,539.582 278.336,547.749 254.5,541C 243.817,539.092 235.984,542.925 231,552.5C 227.14,566.925 232.306,576.425 246.5,581C 271.791,588.058 294.791,583.724 315.5,568C 330.877,553.743 341.544,536.576 347.5,516.5C 363.847,516.833 380.18,516.499 396.5,515.5C 396.376,514.893 396.043,514.56 395.5,514.5C 390.461,501.884 385.127,489.384 379.5,477C 396.978,469.311 412.978,459.478 427.5,447.5C 459.905,458.695 488.905,475.528 514.5,498C 518.439,501.429 521.772,505.263 524.5,509.5 Z"/></g>
<g><path style="opacity:1" fill="#5a80ae" d="M 299.5,486.5 C 315.5,487.833 331.5,487.833 347.5,486.5C 348.043,486.56 348.376,486.893 348.5,487.5C 331.833,488.833 315.167,488.833 298.5,487.5C 298.624,486.893 298.957,486.56 299.5,486.5 Z"/></g>
<g><path style="opacity:1" fill="#919bb7" d="M 271.5,505.5 C 287.5,505.5 303.5,505.5 319.5,505.5C 319.737,506.791 319.404,507.791 318.5,508.5C 303.027,506.838 287.36,505.838 271.5,505.5 Z"/></g>
<g><path style="opacity:1" fill="#f9e39a" d="M 255.5,514.5 C 271.5,515.167 287.5,515.833 303.5,516.5C 287.153,516.833 270.82,516.499 254.5,515.5C 254.624,514.893 254.957,514.56 255.5,514.5 Z"/></g>
<g><path style="opacity:1" fill="#f8e299" d="M 395.5,514.5 C 396.043,514.56 396.376,514.893 396.5,515.5C 380.18,516.499 363.847,516.833 347.5,516.5C 363.5,515.833 379.5,515.167 395.5,514.5 Z"/></g>
</svg>
